<svg id="Capa_1" enable-background="new 0 0 512 512" height="512" viewBox="0 0 512 512" width="512" xmlns="http://www.w3.org/2000/svg"><g><g><path d="m256 512c-68.38 0-132.667-26.629-181.02-74.98-48.351-48.353-74.98-112.64-74.98-181.02s26.629-132.667 74.98-181.02c48.353-48.351 112.64-74.98 181.02-74.98s132.667 26.629 181.02 74.98c48.351 48.353 74.98 112.64 74.98 181.02s-26.629 132.667-74.98 181.02c-48.353 48.351-112.64 74.98-181.02 74.98z" fill="#ffe45c"/></g><path d="m256 0v512c68.38 0 132.667-26.629 181.02-74.98 48.351-48.353 74.98-112.64 74.98-181.02s-26.629-132.667-74.98-181.02c-48.353-48.351-112.64-74.98-181.02-74.98z" fill="#ffd15e"/><g><path d="m394.1 316.25c-23.24 53.2-76.33 90.38-138.1 90.38s-114.86-37.18-138.1-90.38l138.1-30.125z" fill="#fe6a16"/></g><path d="m394.1 316.25-138.1-30.125v120.505c61.77 0 114.86-37.18 138.1-90.38z" fill="#f71446"/><g><path d="m405.713 272.717c-1.691 15.32-5.679 29.95-11.613 43.533h-276.2c-5.934-13.583-9.922-28.213-11.613-43.533-.983-8.91 5.944-16.717 14.908-16.717h269.61c8.964 0 15.891 7.807 14.908 16.717z" fill="#f5f5fc"/></g><path d="m390.805 256h-134.805v60.25h138.1c5.934-13.583 9.922-28.213 11.613-43.533.983-8.91-5.944-16.717-14.908-16.717z" fill="#ebebf5"/></g></svg>