<?xml version="1.0" encoding="UTF-8"?>
<svg xmlns="http://www.w3.org/2000/svg" xmlns:xlink="http://www.w3.org/1999/xlink" viewBox="0 0 42 42" width="42px" height="42px">
<g id="surface115407116">
<path style=" stroke:none;fill-rule:nonzero;fill:rgb(9.411765%,46.666667%,94.901961%);fill-opacity:1;" d="M 21 3.5 C 11.335938 3.5 3.5 11.335938 3.5 21 C 3.5 30.441406 10.980469 38.113281 20.335938 38.464844 L 20.335938 26.316406 L 16.238281 26.316406 L 16.238281 21.550781 L 20.335938 21.550781 L 20.335938 18.039062 C 20.335938 13.972656 22.824219 11.757812 26.453125 11.757812 C 27.675781 11.753906 28.898438 11.816406 30.113281 11.941406 L 30.113281 16.191406 L 27.613281 16.191406 C 25.636719 16.191406 25.253906 17.128906 25.253906 18.507812 L 25.253906 21.542969 L 29.976562 21.542969 L 29.363281 26.3125 L 25.222656 26.3125 L 25.222656 37.964844 C 32.84375 36.074219 38.5 29.207031 38.5 21 C 38.5 11.335938 30.664062 3.5 21 3.5 Z M 21 3.5 "/>
</g>
</svg>
